<svg xmlns="http://www.w3.org/2000/svg" width="24" height="24" viewBox="0 0 24 24" fill="none" stroke="#2563EB" strokeWidth="2" strokeLinecap="round" strokeLinejoin="round" class="lucide lucide-heart-pulse">
  <path d="M19 14h1a2 2 0 0 0 2-2v-2a2 2 0 0 0-2-2h-1"></path>
  <path d="M10 21.2v-1.2"></path>
  <path d="M12 18h.8c.7 0 1.4-.4 1.7-1a2 2 0 0 0 0-2c-.3-.6-1-1-1.7-1H12V8h2.3c.7 0 1.4-.4 1.7-1a2 2 0 0 0 0-2c-.3-.6-1-1-1.7-1H10v12Z"></path>
  <path d="M4 14h1a2 2 0 0 0 2-2v-2a2 2 0 0 0-2-2H4"></path>
  <path d="M17 14h-7c-1.1 0-2-.9-2-2v-2c0-1.1.9-2 2-2h7"></path>
  <path d="M17 10h-7c-1.1 0-2-.9-2-2v-2c0-1.1.9-2 2-2h7"></path>
  <path d="M4 10h1a2 2 0 0 0 2-2V6a2 2 0 0 0-2-2H4"></path>
  <path d="M17 6h-7c-1.1 0-2-.9-2-2V2c0-1.1.9-2 2-2h7"></path>
  <path d="M4 6h1a2 2 0 0 0 2-2V2a2 2 0 0 0-2-2H4"></path>
  <path d="M17 2h-7c-1.1 0-2-.9-2-2H4"></path>
  <path d="M17 2h-7c-1.1 0-2-.9-2-2H4"></path>
  <path d="M17 6h-7c-1.1 0-2-.9-2-2V2c0-1.1.9-2 2-2h7"></path>
  <path d="M17 6h-7c-1.1 0-2-.9-2-2V2c0-1.1.9-2 2-2h7"></path>
  <path d="M17 10h-7c-1.1 0-2-.9-2-2V6c0-1.1.9-2 2-2h7"></path>
  <path d="M17 10h-7c-1.1 0-2-.9-2-2V6c0-1.1.9-2 2-2h7"></path>
  <path d="M17 14h-7c-1.1 0-2-.9-2-2V6c0-1.1.9-2 2-2h7"></path>
  <path d="M17 14h-7c-1.1 0-2-.9-2-2V6c0-1.1.9-2 2-2h7"></path>
  <path d="M17 18h-7c-1.1 0-2-.9-2-2V6c0-1.1.9-2 2-2h7"></path>
  <path d="M17 18h-7c-1.1 0-2-.9-2-2V6c0-1.1.9-2 2-2h7"></path>
  <path d="M17 22h-7c-1.1 0-2-.9-2-2V6c0-1.1.9-2 2-2h7"></path>
  <path d="M17 22h-7c-1.1 0-2-.9-2-2V6c0-1.1.9-2 2-2h7"></path>
</svg>
