<svg xmlns="http://www.w3.org/2000/svg" viewBox="0 0 64 64">
  <!-- Background: Rounded Square Blue -->
  <rect x="0" y="0" width="64" height="64" rx="12" fill="#2563eb"/>
  
  <!-- Heart Shape -->
  <path d="M32 54.6l-4.35-3.96C12.2 36.6 2 27.3 2 15.5 2 6.5 9.5 0 17.5 0c4.3 0 8.5 2 11.5 5.5C32 2 36.2 0 40.5 0 48.5 0 56 6.5 56 15.5c0 11.8-10.2 21.1-25.65 35.14L32 54.6z" transform="translate(3, 5) scale(0.9)" fill="#ffffff"/>
  
  <!-- Pulse Line Cutout (Simulated by Blue Stroke) -->
  <path d="M14 28h8l5-12 6 18 5-6h8" fill="none" stroke="#2563eb" stroke-width="5" stroke-linecap="round" stroke-linejoin="round" transform="translate(3, 5) scale(0.9)"/>
</svg>
